<?xml version="1.0" encoding="UTF-8"?>
<svg version="1.1" xmlns="http://www.w3.org/2000/svg" width="200" height="200">
<path d="M0 0 C3.2318973 1.64915592 6.00588263 3.78885827 8.90087891 5.9699707 C9.72587891 6.4030957 10.55087891 6.8362207 11.40087891 7.2824707 C15.25363154 9.88307873 17.95522299 13.40700193 20.90087891 16.9699707 C21.41521484 17.58227539 21.92955078 18.19458008 22.45947266 18.82543945 C23.61321725 20.20143513 24.7581345 21.58482597 25.90087891 22.9699707 C26.33658203 22.59485352 26.77228516 22.21973633 27.22119141 21.83325195 C28.47283936 20.75770165 29.72691912 19.68497735 30.98291016 18.61450195 C32.57439567 17.24990846 34.14650135 15.86275075 35.71337891 14.4699707 C47.34252417 4.88211157 61.7837204 0.33054394 76.81494141 0.65356445 C86.43046967 1.63946039 97.99962103 4.13728248 105.90087891 9.9699707 C107.39652553 12.34731025 107.92828401 13.46297626 107.77587891 16.2824707 C106.61077037 19.86101835 104.85572322 22.75393651 102.90087891 25.9699707 C103.90248047 25.59743164 104.90408203 25.22489258 105.93603516 24.84106445 C107.27819522 24.36239198 108.62065975 23.88457261 109.96337891 23.4074707 C110.62015625 23.16061523 111.27693359 22.91375977 111.95361328 22.65942383 C116.54719502 21.05280165 120.17458287 20.2054112 124.90087891 21.9699707 C131.88787677 30.64843282 130.05990867 45.16445883 129.35205078 55.5065918 C127.71503351 68.07300255 120.66832218 79.09929046 110.90087891 86.9699707 C109.54650302 88.15723207 108.19231701 89.34471011 106.83837891 90.5324707 C105.86900391 91.3368457 104.89962891 92.1412207 103.90087891 92.9699707 C105.10744141 93.8671582 105.10744141 93.8671582 106.33837891 94.7824707 C113.77256537 101.01588595 119.7472154 108.78112374 122.90087891 117.9699707 C123.18576172 118.77176758 123.47064453 119.57356445 123.76416016 120.3996582 C127.97683547 133.21737172 127.83545022 146.6443226 121.90087891 158.9699707 C120.15087891 161.0324707 120.15087891 161.0324707 117.90087891 161.9699707 C112.64730169 161.77172251 108.58103811 160.16678013 103.90087891 157.9699707 C104.29919922 158.55004883 104.69751953 159.13012695 105.10791016 159.7277832 C112.92984692 171.26085785 112.92984692 171.26085785 112.83837891 176.6574707 C111.74484034 180.52130696 111.25358738 180.96265086 107.90087891 182.9699707 C105.27422621 183.93474972 102.70138443 184.79968282 100.02587891 185.5949707 C99.33107422 185.8115332 98.63626953 186.0280957 97.92041016 186.2512207 C82.01614488 191.10336943 66.3902113 189.25009297 51.46337891 182.1574707 C46.15370357 179.3174118 41.47410496 175.87338082 36.90087891 171.9699707 C36.22025391 172.6505957 35.53962891 173.3312207 34.83837891 174.0324707 C34.37689453 174.48879883 33.91541016 174.94512695 33.43994141 175.4152832 C32.39286436 176.47299047 31.36728396 177.55232051 30.36181641 178.6496582 C25.76439148 183.55212554 20.89116946 186.93733404 14.90087891 189.9699707 C13.96373047 190.45981445 13.02658203 190.9496582 12.06103516 191.4543457 C-2.8791506 198.02876613 -22.11353233 197.13932646 -37.24365234 191.55200195 C-40.49461693 189.75085195 -42.68112974 187.78363337 -45.09912109 184.9699707 C-46.18267351 179.55220861 -43.70749471 175.55791359 -41.09912109 170.9699707 C-42.49324219 171.51137695 -42.49324219 171.51137695 -43.91552734 172.0637207 C-45.16399967 172.5330712 -46.41271058 173.00178743 -47.66162109 173.4699707 C-48.87978516 173.9340332 -50.09794922 174.3980957 -51.35302734 174.8762207 C-55.14101299 175.98220191 -58.17815342 176.17182232 -62.09912109 175.9699707 C-69.03576913 163.02156103 -70.03976695 150.20176564 -65.97412109 136.0949707 C-63.96688388 129.63336596 -61.48074138 124.19698596 -57.09912109 118.9699707 C-56.47908203 118.20297852 -55.85904297 117.43598633 -55.22021484 116.64575195 C-51.07709633 111.74049423 -46.64223816 107.28803374 -41.09912109 103.9699707 C-40.43912109 103.9699707 -39.77912109 103.9699707 -39.09912109 103.9699707 C-42.42022373 100.527753 -45.89172157 97.42269712 -49.56835938 94.36572266 C-55.81769557 89.14037221 -61.307567 84.30552038 -65.09912109 76.9699707 C-65.56705078 76.08954102 -66.03498047 75.20911133 -66.51708984 74.30200195 C-70.8068756 65.97477079 -71.34049793 59.68581353 -71.41162109 50.3449707 C-71.440625 49.09844727 -71.46962891 47.85192383 -71.49951172 46.56762695 C-71.5513171 39.0199809 -70.84372538 33.53872749 -67.09912109 26.9699707 C-66.59509766 25.93227539 -66.09107422 24.89458008 -65.57177734 23.82543945 C-60.49585011 14.22195386 -60.49585011 14.22195386 -56.09912109 11.9699707 C-52.36373245 11.26518039 -50.15436771 11.3294175 -46.87255859 13.3215332 C-44.8809071 14.80647478 -42.97044153 16.33681832 -41.09912109 17.9699707 C-41.26669922 16.71700195 -41.43427734 15.4640332 -41.60693359 14.1730957 C-41.8133038 12.52213404 -42.01899766 10.87108773 -42.22412109 9.2199707 C-42.33626953 8.3949707 -42.44841797 7.5699707 -42.56396484 6.7199707 C-42.66064453 5.92075195 -42.75732422 5.1215332 -42.85693359 4.2980957 C-42.95119629 3.56494141 -43.04545898 2.83178711 -43.14257812 2.07641602 C-43.08953922 -0.49448118 -42.52781076 -1.90120628 -41.09912109 -4.0300293 C-28.17704552 -8.33738782 -12.20282563 -5.20770198 0 0 Z " fill="#1F9467" transform="translate(71.09912109375,5.030029296875)"/>
<path d="M0 0 C3.2318973 1.64915592 6.00588263 3.78885827 8.90087891 5.9699707 C9.72587891 6.4030957 10.55087891 6.8362207 11.40087891 7.2824707 C15.25363154 9.88307873 17.95522299 13.40700193 20.90087891 16.9699707 C21.41521484 17.58227539 21.92955078 18.19458008 22.45947266 18.82543945 C23.61321725 20.20143513 24.7581345 21.58482597 25.90087891 22.9699707 C26.33658203 22.59485352 26.77228516 22.21973633 27.22119141 21.83325195 C28.47283936 20.75770165 29.72691912 19.68497735 30.98291016 18.61450195 C32.57439567 17.24990846 34.14650135 15.86275075 35.71337891 14.4699707 C47.34252417 4.88211157 61.7837204 0.33054394 76.81494141 0.65356445 C86.43046967 1.63946039 97.99962103 4.13728248 105.90087891 9.9699707 C107.39652553 12.34731025 107.92828401 13.46297626 107.77587891 16.2824707 C106.61077037 19.86101835 104.85572322 22.75393651 102.90087891 25.9699707 C103.90248047 25.59743164 104.90408203 25.22489258 105.93603516 24.84106445 C107.27819522 24.36239198 108.62065975 23.88457261 109.96337891 23.4074707 C110.62015625 23.16061523 111.27693359 22.91375977 111.95361328 22.65942383 C116.54719502 21.05280165 120.17458287 20.2054112 124.90087891 21.9699707 C131.88787677 30.64843282 130.05990867 45.16445883 129.35205078 55.5065918 C127.71503351 68.07300255 120.66832218 79.09929046 110.90087891 86.9699707 C109.54650302 88.15723207 108.19231701 89.34471011 106.83837891 90.5324707 C105.86900391 91.3368457 104.89962891 92.1412207 103.90087891 92.9699707 C105.10744141 93.8671582 105.10744141 93.8671582 106.33837891 94.7824707 C113.77256537 101.01588595 119.7472154 108.78112374 122.90087891 117.9699707 C123.18576172 118.77176758 123.47064453 119.57356445 123.76416016 120.3996582 C127.97683547 133.21737172 127.83545022 146.6443226 121.90087891 158.9699707 C120.15087891 161.0324707 120.15087891 161.0324707 117.90087891 161.9699707 C112.64730169 161.77172251 108.58103811 160.16678013 103.90087891 157.9699707 C104.29919922 158.55004883 104.69751953 159.13012695 105.10791016 159.7277832 C112.92984692 171.26085785 112.92984692 171.26085785 112.83837891 176.6574707 C111.74484034 180.52130696 111.25358738 180.96265086 107.90087891 182.9699707 C105.27422621 183.93474972 102.70138443 184.79968282 100.02587891 185.5949707 C99.33107422 185.8115332 98.63626953 186.0280957 97.92041016 186.2512207 C82.01614488 191.10336943 66.3902113 189.25009297 51.46337891 182.1574707 C46.15370357 179.3174118 41.47410496 175.87338082 36.90087891 171.9699707 C36.22025391 172.6505957 35.53962891 173.3312207 34.83837891 174.0324707 C34.37689453 174.48879883 33.91541016 174.94512695 33.43994141 175.4152832 C32.39286436 176.47299047 31.36728396 177.55232051 30.36181641 178.6496582 C25.76439148 183.55212554 20.89116946 186.93733404 14.90087891 189.9699707 C13.96373047 190.45981445 13.02658203 190.9496582 12.06103516 191.4543457 C-2.8791506 198.02876613 -22.11353233 197.13932646 -37.24365234 191.55200195 C-40.49461693 189.75085195 -42.68112974 187.78363337 -45.09912109 184.9699707 C-46.18267351 179.55220861 -43.70749471 175.55791359 -41.09912109 170.9699707 C-42.49324219 171.51137695 -42.49324219 171.51137695 -43.91552734 172.0637207 C-45.16399967 172.5330712 -46.41271058 173.00178743 -47.66162109 173.4699707 C-48.87978516 173.9340332 -50.09794922 174.3980957 -51.35302734 174.8762207 C-55.14101299 175.98220191 -58.17815342 176.17182232 -62.09912109 175.9699707 C-69.03576913 163.02156103 -70.03976695 150.20176564 -65.97412109 136.0949707 C-63.96688388 129.63336596 -61.48074138 124.19698596 -57.09912109 118.9699707 C-56.47908203 118.20297852 -55.85904297 117.43598633 -55.22021484 116.64575195 C-51.07709633 111.74049423 -46.64223816 107.28803374 -41.09912109 103.9699707 C-40.43912109 103.9699707 -39.77912109 103.9699707 -39.09912109 103.9699707 C-42.42022373 100.527753 -45.89172157 97.42269712 -49.56835938 94.36572266 C-55.81769557 89.14037221 -61.307567 84.30552038 -65.09912109 76.9699707 C-65.56705078 76.08954102 -66.03498047 75.20911133 -66.51708984 74.30200195 C-70.8068756 65.97477079 -71.34049793 59.68581353 -71.41162109 50.3449707 C-71.440625 49.09844727 -71.46962891 47.85192383 -71.49951172 46.56762695 C-71.5513171 39.0199809 -70.84372538 33.53872749 -67.09912109 26.9699707 C-66.59509766 25.93227539 -66.09107422 24.89458008 -65.57177734 23.82543945 C-60.49585011 14.22195386 -60.49585011 14.22195386 -56.09912109 11.9699707 C-52.36373245 11.26518039 -50.15436771 11.3294175 -46.87255859 13.3215332 C-44.8809071 14.80647478 -42.97044153 16.33681832 -41.09912109 17.9699707 C-41.26669922 16.71700195 -41.43427734 15.4640332 -41.60693359 14.1730957 C-41.8133038 12.52213404 -42.01899766 10.87108773 -42.22412109 9.2199707 C-42.33626953 8.3949707 -42.44841797 7.5699707 -42.56396484 6.7199707 C-42.66064453 5.92075195 -42.75732422 5.1215332 -42.85693359 4.2980957 C-42.95119629 3.56494141 -43.04545898 2.83178711 -43.14257812 2.07641602 C-43.08953922 -0.49448118 -42.52781076 -1.90120628 -41.09912109 -4.0300293 C-28.17704552 -8.33738782 -12.20282563 -5.20770198 0 0 Z M-32.09912109 12.9699707 C-32.42476063 21.34355881 -29.97677157 29.88072179 -28.09912109 37.9699707 C-32.22843466 35.35138161 -35.71469966 32.58591742 -39.19287109 29.1418457 C-41.98379271 27.4261152 -43.88628372 27.54462077 -47.09912109 27.9699707 C-54.56090755 33.10824714 -57.51076659 41.40666814 -59.09912109 49.9699707 C-60.59938437 61.91492405 -57.04773165 72.96131323 -50.07958984 82.72387695 C-43.27439615 90.44179879 -34.5548617 96.56648626 -26.14599609 102.41137695 C-24.09912109 103.9699707 -24.09912109 103.9699707 -23.09912109 105.9699707 C-23.92412109 106.0112207 -24.74912109 106.0524707 -25.59912109 106.0949707 C-30.38539479 107.29153913 -33.32830013 109.89686921 -37.09912109 112.9699707 C-37.96537109 113.5680957 -38.83162109 114.1662207 -39.72412109 114.7824707 C-47.82596861 122.24469868 -51.850112 132.28077252 -52.32958984 143.1262207 C-52.36457906 144.6364796 -52.39185436 146.14693588 -52.41162109 147.6574707 C-52.42918457 148.38216553 -52.44674805 149.10686035 -52.46484375 149.85351562 C-52.45919162 154.78047878 -51.77936939 159.2897224 -48.09912109 162.9699707 C-42.0586537 162.53946969 -36.87714031 161.07249715 -31.22412109 158.9699707 C-30.08716797 158.56004883 -30.08716797 158.56004883 -28.92724609 158.1418457 C-24.94997184 156.70660063 -24.94997184 156.70660063 -21.09912109 154.9699707 C-21.74880859 155.91098633 -22.39849609 156.85200195 -23.06787109 157.8215332 C-23.91234444 159.07886018 -24.75605445 160.33670007 -25.59912109 161.5949707 C-26.02837891 162.21243164 -26.45763672 162.82989258 -26.89990234 163.46606445 C-29.5395951 167.44655354 -30.6457954 170.03471654 -30.09912109 174.9699707 C-28.94412109 175.5680957 -27.78912109 176.1662207 -26.59912109 176.7824707 C-25.94943359 177.11891602 -25.29974609 177.45536133 -24.63037109 177.80200195 C-18.09520329 180.81745747 -12.60162469 182.53119976 -5.34912109 182.4699707 C-4.5641626 182.46497559 -3.7792041 182.45998047 -2.97045898 182.45483398 C4.10325257 182.24467351 9.7266595 180.46900359 15.90087891 176.9699707 C16.70912109 176.52395508 17.51736328 176.07793945 18.35009766 175.6184082 C25.63298831 171.19179555 32.0486708 165.12527932 34.90087891 156.9699707 C35.56087891 156.9699707 36.22087891 156.9699707 36.90087891 156.9699707 C37.15482422 157.5577832 37.40876953 158.1455957 37.67041016 158.7512207 C41.763226 166.13128228 50.52355987 170.88065291 58.21337891 173.7199707 C70.72367215 177.15267312 83.42525106 175.87786023 94.90087891 169.9699707 C98.06597535 168.35310032 98.06597535 168.35310032 98.40087891 165.8449707 C97.6499483 161.52711973 95.32690009 158.56096245 92.90087891 154.9699707 C91.62562996 152.97278331 90.35489219 150.97270919 89.08837891 148.9699707 C88.02620099 147.30309875 86.96381448 145.63635961 85.90087891 143.9699707 C88.04786093 144.61197506 90.19343844 145.25867816 92.33837891 145.9074707 C93.53333984 146.26711914 94.72830078 146.62676758 95.95947266 146.99731445 C98.90087891 147.9699707 98.90087891 147.9699707 99.90087891 148.9699707 C103.32703964 149.28041683 103.32703964 149.28041683 106.90087891 147.9699707 C112.08194746 142.30972818 111.65586058 133.34362002 111.35009766 126.13793945 C110.51248625 115.76516629 104.12746976 106.58934978 96.52587891 99.7824707 C92.88380908 96.80852107 88.95070596 94.34727178 84.90087891 91.9699707 C85.66271484 91.64125977 86.42455078 91.31254883 87.20947266 90.97387695 C99.14088569 85.47738331 107.86249316 77.30979895 112.70947266 64.8996582 C114.0654018 59.98090836 114.12160366 54.92049053 114.21337891 49.8449707 C114.24020752 48.84119385 114.24020752 48.84119385 114.26757812 47.81713867 C114.2592991 43.02121964 113.47219536 37.54128716 109.90087891 33.9699707 C103.9710182 33.27911314 98.98688246 35.4522818 93.52587891 37.4699707 C92.59904297 37.80383789 91.67220703 38.13770508 90.71728516 38.48168945 C88.44193739 39.30269122 86.1701277 40.13229008 83.90087891 40.9699707 C84.48998047 40.01735352 85.07908203 39.06473633 85.68603516 38.08325195 C86.44591581 36.8167842 87.2049883 35.5498313 87.96337891 34.2824707 C88.35332031 33.65663086 88.74326172 33.03079102 89.14501953 32.38598633 C90.81545615 29.56250497 91.90087891 27.49684858 91.90087891 24.1809082 C90.00777175 19.99536661 85.93119806 18.73686262 81.90087891 16.9699707 C70.39141777 12.80275202 56.92655311 13.87591699 45.90087891 18.9699707 C37.02371968 24.24044855 30.2851279 30.81291079 25.84619141 40.20043945 C24.90087891 41.9699707 24.90087891 41.9699707 22.90087891 42.9699707 C22.85962891 42.0005957 22.81837891 41.0312207 22.77587891 40.0324707 C21.58025906 32.01858629 15.41494621 25.85696095 9.45947266 20.82543945 C-0.14714964 13.85880496 -10.22157223 10.59625966 -21.97412109 10.7199707 C-23.11107422 10.70836914 -23.11107422 10.70836914 -24.27099609 10.6965332 C-28.65372458 10.55297443 -28.65372458 10.55297443 -32.09912109 12.9699707 Z " fill="#A3D6D7" transform="translate(71.09912109375,5.030029296875)"/>
<path d="M0 0 C-0.4535179 7.02952752 -2.12059087 12.5849443 -5 19 C-4.04738281 18.7834375 -3.09476563 18.566875 -2.11328125 18.34375 C-0.85902344 18.0653125 0.39523438 17.786875 1.6875 17.5 C2.92886719 17.2215625 4.17023438 16.943125 5.44921875 16.65625 C8.42398218 16.10645874 10.99368602 15.86204295 14 16 C16.71950078 22.99300199 18.46946183 28.83652482 15.875 36.1875 C11.43831429 42.84252856 7.04368839 44.70897747 -0.5859375 46.375 C-28.44517349 51.47508897 -28.44517349 51.47508897 -37 46 C-39.90786674 42.64818414 -41.72614902 39.43011068 -42.5625 35.0625 C-41.92415727 31.58707848 -40.7285963 28.85983536 -39.1953125 25.69140625 C-37.77982344 22.50424298 -36.75918149 19.25545428 -35.6875 15.9375 C-29.62385 -1.33923814 -16.88362788 -5.29682443 0 0 Z " fill="#FAB1C1" transform="translate(144,41)"/>
<path d="M0 0 C2.84625 -0.0825 5.6925 -0.165 8.625 -0.25 C9.51010254 -0.28641602 10.39520508 -0.32283203 11.30712891 -0.36035156 C16.72294204 -0.43592672 19.674152 0.45641508 24 4 C24.598125 4.45375 25.19625 4.9075 25.8125 5.375 C29.5837529 10.53566186 28.29571223 19.68373249 28.35009766 25.77563477 C28.3666357 27.12834911 28.39389858 28.48097682 28.43212891 29.83325195 C28.67212801 38.40122004 28.44305544 45.08579273 23 52 C19.90346021 55.00546509 16.99020187 55.28046106 12.8125 55.5625 C7.34820133 55.40909055 4.07759556 53.74307606 -0.3828125 50.71484375 C-3.25909497 48.83023479 -6.20269913 47.40115934 -9.3125 45.9375 C-16.0317109 42.61660959 -21.49015605 38.34262859 -24 31 C-25.05381851 23.9159978 -24.45945945 18.38429858 -20.58203125 12.328125 C-19 11 -19 11 -16.60546875 10.65234375 C-13.71813402 11.0376103 -11.99192845 11.82523988 -9.5 13.3125 C-8.7678125 13.74175781 -8.035625 14.17101563 -7.28125 14.61328125 C-6.5284375 15.07089844 -5.775625 15.52851562 -5 16 C-3.35 16.99 -1.7 17.98 0 19 C0 12.73 0 6.46 0 0 Z " fill="#FBB1C1" transform="translate(54,41)"/>
<path d="M0 0 C3.45925771 2.07555463 6.37020991 4.67791981 8.1875 8.3125 C8.71142416 19.5020231 7.18062062 34.80026257 -0.06640625 43.74609375 C-6.060237 49.1231097 -12.28125424 49.75081694 -20.11328125 49.6484375 C-22.79420899 49.31477645 -24.50696758 48.68158101 -26.8125 47.3125 C-26.12084212 41.89451328 -25.05450752 36.6302215 -23.8125 31.3125 C-24.86050781 31.60125 -25.90851562 31.89 -26.98828125 32.1875 C-28.36713366 32.56269793 -29.74604289 32.93768705 -31.125 33.3125 C-31.81529297 33.50328125 -32.50558594 33.6940625 -33.21679688 33.890625 C-36.17037949 34.68966184 -38.73809219 35.3125 -41.8125 35.3125 C-44.7318707 29.06973854 -47.14730049 23.28015856 -45.8125 16.3125 C-43.38339898 11.62780518 -40.59417738 8.24601207 -35.5078125 6.5390625 C-34.65960938 6.34054688 -33.81140625 6.14203125 -32.9375 5.9375 C-28.38770138 4.80156897 -24.12269103 3.31780841 -19.75 1.625 C-12.84372368 -0.88912691 -7.1608189 -1.7504224 0 0 Z " fill="#FAB1C1" transform="translate(86.8125,118.6875)"/>
<path d="M0 0 C2.00375856 0.6552832 4.00353911 1.32280849 6 2 C8.26721966 2.43590155 10.53835012 2.85183234 12.8125 3.25 C20.14610372 4.78494031 26.15801738 7.16978251 30.71875 13.31640625 C32.21647195 16.45340314 32.36938563 18.60122806 32.3125 22.0625 C32.30863281 23.08472656 32.30476563 24.10695312 32.30078125 25.16015625 C32.0062144 27.94132634 31.42886736 29.62614466 30 32 C29.09636719 31.9278125 28.19273437 31.855625 27.26171875 31.78125 C26.08222656 31.6884375 24.90273437 31.595625 23.6875 31.5 C22.51574219 31.4071875 21.34398437 31.314375 20.13671875 31.21875 C18.094806 31.07635011 16.0468721 31 14 31 C14.144375 31.58007812 14.28875 32.16015625 14.4375 32.7578125 C15.50889428 37.26659675 16.23945936 41.33054247 16 46 C10.05810235 48.35990261 4.4271612 50.10145324 -2 49 C-6.74957446 46.53725769 -9.97876538 43.72281767 -11.87548828 38.66577148 C-12.10478027 37.82602783 -12.33407227 36.98628418 -12.5703125 36.12109375 C-12.82683594 35.20005859 -13.08335938 34.27902344 -13.34765625 33.33007812 C-13.60417969 32.37552734 -13.86070313 31.42097656 -14.125 30.4375 C-14.64810874 28.54027391 -15.17153247 26.64313463 -15.6953125 24.74609375 C-15.92234863 23.90747803 -16.14938477 23.0688623 -16.38330078 22.20483398 C-16.87265949 20.45527005 -17.42550493 18.72348522 -18 17 C-18.39614654 11.75105833 -17.86557317 8.44657906 -15 4 C-10.76886645 -0.87221439 -6.04916041 -0.78229744 0 0 Z " fill="#FAB1C1" transform="translate(130,109)"/>
<path d="M0 0 C0.99 0.33 1.98 0.66 3 1 C3 1.99 3 2.98 3 4 C0.9950511 5.75507396 -0.97464213 7.31832789 -3.125 8.875 C-4.27435934 9.72531788 -5.42280089 10.57687774 -6.5703125 11.4296875 C-7.42544434 12.05762207 -7.42544434 12.05762207 -8.29785156 12.69824219 C-10.01098619 14.00840195 -11.62155619 15.39812584 -13.2421875 16.8203125 C-16 19 -16 19 -19 19 C-19 15 -19 15 -17.34765625 13.32421875 C-16.59355469 12.78410156 -15.83945313 12.24398437 -15.0625 11.6875 C-14.24910156 11.09066406 -13.43570313 10.49382812 -12.59765625 9.87890625 C-11.74042969 9.25886719 -10.88320312 8.63882813 -10 8 C-8.32820272 6.71498078 -6.66126178 5.42361074 -5 4.125 C-4.2575 3.55007812 -3.515 2.97515625 -2.75 2.3828125 C-1.07791957 1.11672295 -1.07791957 1.11672295 0 0 Z " fill="#BD4A64" transform="translate(130,68)"/>
<path d="M0 0 C-0.58632136 3.275451 -1.57318303 4.96327069 -3.87109375 7.34765625 C-4.44537109 7.95287109 -5.01964844 8.55808594 -5.61132812 9.18164062 C-6.5152832 10.11266602 -6.5152832 10.11266602 -7.4375 11.0625 C-8.62550423 12.30165619 -9.8117718 13.54248025 -10.99609375 14.78515625 C-11.52388428 15.33051025 -12.0516748 15.87586426 -12.59545898 16.43774414 C-14.20754293 18.15554681 -14.20754293 18.15554681 -16 21 C-17.32 20.67 -18.64 20.34 -20 20 C-17.79447845 15.09095792 -14.20987307 11.63412635 -10.5625 7.75 C-9.88123047 7.00492188 -9.19996094 6.25984375 -8.49804688 5.4921875 C-7.83998047 4.78835937 -7.18191406 4.08453125 -6.50390625 3.359375 C-5.90392822 2.71452148 -5.3039502 2.06966797 -4.68579102 1.40527344 C-3 0 -3 0 0 0 Z " fill="#BC4A64" transform="translate(88,122)"/>
<path d="M0 0 C4.20472259 1.6273085 6.94369934 4.75637518 10 7.9375 C13.953406 12.07971987 13.953406 12.07971987 18.375 15.69140625 C18.91125 16.12324219 19.4475 16.55507812 20 17 C20 17.99 20 18.98 20 20 C15.8275969 19.48993402 13.91975849 18.40495389 11.01171875 15.40234375 C10.30595703 14.68369141 9.60019531 13.96503906 8.87304688 13.22460938 C8.15181641 12.46986328 7.43058594 11.71511719 6.6875 10.9375 C5.94693359 10.17888672 5.20636719 9.42027344 4.44335938 8.63867188 C2.61956166 6.76780841 0.80575696 4.88825508 -1 3 C-0.67 2.01 -0.34 1.02 0 0 Z " fill="#BC4863" transform="translate(120,111)"/>
<path d="M0 0 C3.5410333 1.42522328 4.91112892 2.96054385 6.796875 6.24609375 C7.28027344 7.08333984 7.76367188 7.92058594 8.26171875 8.78320312 C8.99841797 10.09708008 8.99841797 10.09708008 9.75 11.4375 C10.25660156 12.30955078 10.76320313 13.18160156 11.28515625 14.08007812 C15 20.59357101 15 20.59357101 15 24 C14.01 24 13.02 24 12 24 C10.45019531 22.11987305 10.45019531 22.11987305 8.828125 19.51171875 C8.24675781 18.57779297 7.66539063 17.64386719 7.06640625 16.68164062 C6.46699219 15.69357422 5.86757813 14.70550781 5.25 13.6875 C4.63511719 12.71103516 4.02023438 11.73457031 3.38671875 10.72851562 C0.03347707 5.27105853 0.03347707 5.27105853 -1 3 C-0.67 2.01 -0.34 1.02 0 0 Z " fill="#BC4963" transform="translate(57,70)"/>
<path d="M0 0 C0.66 0.33 1.32 0.66 2 1 C-2.29 5.29 -6.58 9.58 -11 14 C-11 9.82308582 -8.77013484 7.86318847 -6 5 C-4.05228995 3.24842937 -2.05675499 1.62627139 0 0 Z " fill="#38A07B" transform="translate(37,115)"/>
<path d="M0 0 C0.66 0.33 1.32 0.66 2 1 C-1.63 4.63 -5.26 8.26 -9 12 C-9 7.8407692 -6.75316432 5.85455565 -4 3 C-1.6875 1.125 -1.6875 1.125 0 0 Z " fill="#379F7B" transform="translate(111,28)"/>
<path d="M0 0 C-1.49097658 3.7952131 -3.75700849 5.61042731 -7 8 C-4.18918919 0 -4.18918919 0 0 0 Z " fill="#D1ABAF" transform="translate(49,127)"/>
<path d="M0 0 C-0.1875 1.8125 -0.1875 1.8125 -1 4 C-3.5625 5.75 -3.5625 5.75 -6 7 C-5.37162381 3.35541809 -4.14650034 0 0 0 Z " fill="#D5A6AD" transform="translate(120,110)"/>
<path d="M0 0 C0.33 0.99 0.66 1.98 1 3 C1.66 3 2.32 3 3 3 C3 3.66 3 4.32 3 5 C0.625 4.6875 0.625 4.6875 -2 4 C-2.66 3.01 -3.32 2.02 -4 1 C-2.68 0.67 -1.36 0.34 0 0 Z " fill="#C99EA2" transform="translate(110,84)"/>
</svg>
