<?xml version="1.0" standalone="no"?>
<!DOCTYPE svg PUBLIC "-//W3C//DTD SVG 20010904//EN"
 "http://www.w3.org/TR/2001/REC-SVG-20010904/DTD/svg10.dtd">
<svg version="1.0" xmlns="http://www.w3.org/2000/svg"
 width="200.000000pt" height="200.000000pt" viewBox="0 0 200.000000 200.000000"
 preserveAspectRatio="xMidYMid meet">

<g transform="translate(0.000000,200.000000) scale(0.100000,-0.100000)"
fill="#000000" stroke="none">
<path d="M435 1831 c-39 -8 -40 -20 -17 -156 10 -60 15 -111 10 -113 -4 -2
-38 22 -76 52 -38 31 -77 56 -86 56 -26 0 -65 -48 -99 -119 -38 -81 -48 -189
-24 -272 31 -104 71 -156 212 -267 72 -57 131 -107 133 -110 1 -4 -22 -18 -50
-31 -69 -31 -168 -127 -202 -195 -38 -76 -51 -165 -36 -253 19 -117 16 -116
169 -64 72 25 133 42 135 40 3 -3 -8 -25 -25 -49 -46 -69 -69 -117 -63 -133 3
-8 33 -28 67 -43 57 -27 72 -29 177 -29 105 0 120 2 174 28 84 39 152 94 192
155 19 28 37 52 40 52 3 0 33 -24 66 -54 37 -34 85 -65 126 -83 59 -24 80 -27
177 -28 92 0 120 4 173 24 34 13 67 31 72 41 7 12 -7 43 -57 124 -36 59 -63
110 -59 113 3 3 45 -8 92 -25 104 -37 117 -34 139 40 52 177 -33 373 -203 466
l-53 29 66 32 c142 70 245 230 245 381 0 49 -21 129 -39 151 l-18 22 -122 -43
c-67 -24 -124 -40 -127 -37 -4 3 14 41 39 83 25 43 43 84 40 94 -9 33 -117 72
-214 78 -170 9 -307 -58 -401 -198 -51 -77 -68 -93 -68 -67 0 29 -51 116 -98
168 -100 109 -273 169 -407 140z m958 -227 c25 -8 49 -23 52 -33 3 -10 -8 -50
-25 -91 l-30 -72 32 6 c17 3 62 9 99 12 77 8 69 15 88 -90 14 -80 -16 -148
-81 -182 -33 -17 -282 -64 -337 -64 -45 0 -109 29 -141 64 -39 43 -34 106 20
246 34 87 55 124 85 155 62 63 146 80 238 49z m-646 -29 c72 -43 83 -77 83
-253 0 -144 -1 -152 -27 -202 -32 -60 -77 -90 -136 -90 -48 0 -282 126 -326
175 -29 33 -51 89 -51 129 0 37 23 96 51 128 l28 33 80 -42 81 -43 0 88 c0 49
3 92 7 95 3 4 42 7 86 7 68 0 87 -4 124 -25z m639 -685 c157 -41 179 -52 215
-114 31 -55 36 -98 15 -156 -15 -43 -36 -47 -112 -25 -31 9 -58 14 -61 12 -2
-3 4 -34 13 -69 10 -36 15 -72 12 -80 -8 -20 -130 -50 -166 -42 -43 10 -91 44
-107 74 -21 41 -75 245 -75 283 1 53 35 116 72 132 46 20 62 19 194 -15z
m-497 -89 c21 -10 43 -33 55 -56 l20 -39 -22 -105 c-33 -159 -40 -179 -78
-221 -47 -52 -108 -74 -181 -67 -83 9 -90 19 -70 109 8 40 15 74 13 75 -1 2
-37 -9 -79 -23 -43 -14 -84 -24 -91 -21 -8 3 -25 37 -37 76 -20 61 -21 75 -11
110 20 66 57 93 178 131 207 64 231 67 303 31z"/>
<path d="M1207 1234 c-54 -41 -97 -82 -97 -91 0 -23 20 -11 125 73 83 66 105
94 76 94 -4 0 -51 -34 -104 -76z"/>
<path d="M572 1292 c-9 -6 4 -36 54 -118 77 -128 71 -121 85 -107 8 8 -7 42
-55 122 -37 61 -68 111 -69 111 -1 0 -8 -4 -15 -8z"/>
<path d="M1195 879 c-13 -20 175 -196 196 -184 7 5 -17 35 -62 82 -90 91 -125
118 -134 102z"/>
<path d="M774 690 c-76 -86 -91 -110 -69 -116 11 -3 161 164 171 190 16 41
-29 9 -102 -74z"/>
</g>
</svg>
